<svg width="62" height="62" viewBox="0 0 62 62" fill="none" xmlns="http://www.w3.org/2000/svg">
  <path d="M41.761 21.1302H41.751V21.1402H41.761V21.1302Z" fill="#7FA768"></path>
  <path d="M 41.449 22.652 L 41.449 58.121 L 54.32 58.121 C 56.252 58.121 57.823 56.57 57.823 54.658 L 57.823 40.316 L 57.823 22.732 L 41.449 22.652 Z" fill="#6AAA64"></path>
  <path d="M 57.554 7.541 L 57.554 21.187 L 40.408 21.111 L 40.484 3.846 L 53.879 3.846 C 55.901 3.846 57.554 5.508 57.554 7.541 Z" style="fill: rgb(106, 170, 99);"></path>
  <path d="M39.6492 40.7967V58.1013H22.5048V40.7167L39.6492 40.7967Z" fill="#6AAA64"></path>
  <path d="M 39.197 3.846 L 39.122 40.194 L 21.975 40.056 L 21.975 3.846 L 39.197 3.846 Z" style="fill: rgb(106, 170, 99); stroke-width: 15.2465; vector-effect: non-scaling-stroke;"></path>
  <path d="M21.2437 40.6266V58.1913H7.41209C5.35036 58.1913 3.66895 56.5099 3.66895 54.4482V40.6266H21.2437Z" fill="#6AAA64"></path>
  <path d="M 20.317 22.651 L 20.235 39.769 L 4.039 39.769 L 4.039 22.651 L 20.317 22.651 Z" style="fill: rgb(106, 170, 99);"></path>
  <path d="M 20.122 3.846 L 20.122 20.137 L 4.039 20.137 L 4.039 7.333 C 4.039 5.414 5.576 3.846 7.466 3.846 L 20.122 3.846 Z" style="fill: rgb(106, 170, 99);"></path>
  <path d="M54.1346 1H7.39537C3.87241 1 1 3.8624 1 7.38536V54.1246C1 57.6476 3.87241 60.52 7.39537 60.52H54.1346C57.6576 60.52 60.52 57.6476 60.52 54.1246V7.38536C60.52 3.87241 57.6576 1 54.1346 1ZM41.7142 21.2971H41.7242V21.3071H41.7142V21.2971ZM4.01253 22.8183H19.9259L19.8458 38.6016H4.01253V22.8183ZM19.9259 57.5275H7.39537C5.5238 57.5275 4.00252 56.0062 4.00252 54.1346V41.5941H19.9259V57.5275ZM19.9259 19.8158H4.01253V7.38536C4.01253 5.5238 5.53381 4.00252 7.40538 4.00252H19.9359V19.8158H19.9259ZM38.7117 57.5275H22.9284V41.524L38.7117 41.6041V57.5275ZM38.6316 38.5916L22.8484 38.5115L22.9184 22.7283L38.7117 22.7883L38.6316 38.5916ZM38.7317 19.7958L22.9284 19.7357V4.00252H38.8018L38.7317 19.7958ZM57.5175 54.1346C57.5175 56.0062 55.9962 57.5275 54.1346 57.5275H41.7142V41.5941H57.5175V54.1346ZM57.5175 38.5916H41.6441L41.7142 22.8083L57.5175 22.8784V38.5916ZM57.5175 19.8859L41.7342 19.8158L41.8043 4.01253H54.1346C55.9962 4.01253 57.5175 5.53381 57.5175 7.39537V19.8859Z" fill="black"></path>
</svg>